<?xml version="1.0" encoding="UTF-8" standalone="no"?> <svg xmlns="http://www.w3.org/2000/svg" viewBox="0 0 32 32"><defs><style>.cls-1{fill:#00cf66;}.cls-2{fill:#eaeff0;}</style></defs><title>Football Field</title><g id="Football_Field" data-name="Football Field"><path class="cls-1" d="M27,27H5a3,3,0,0,1-3-3V8A3,3,0,0,1,5,5H27a3,3,0,0,1,3,3V24A3,3,0,0,1,27,27Z"/><path class="cls-2" d="M17,11.1V5H15v6.1a5,5,0,0,0,0,9.8V27h2V20.9a5,5,0,0,0,0-9.8ZM16,19a3,3,0,1,1,3-3A3,3,0,0,1,16,19Z"/><path class="cls-2" d="M30,13V11H26a2,2,0,0,0-2,2v6a2,2,0,0,0,2,2h4V19H26V13Z"/><path class="cls-2" d="M6,11H2v2H6v6H2v2H6a2,2,0,0,0,2-2V13A2,2,0,0,0,6,11Z"/></g></svg>