<?xml version="1.0" encoding="utf-8"?>
<!-- Generator: Adobe Illustrator 16.0.0, SVG Export Plug-In . SVG Version: 6.00 Build 0)  -->
<!DOCTYPE svg PUBLIC "-//W3C//DTD SVG 1.1//EN" "http://www.w3.org/Graphics/SVG/1.1/DTD/svg11.dtd">
<svg version="1.1" id="Livello_1" xmlns="http://www.w3.org/2000/svg" xmlns:xlink="http://www.w3.org/1999/xlink" x="0px" y="0px"
	 width="100px" height="100px" viewBox="0 0 100 100" enable-background="new 0 0 100 100" xml:space="preserve">
<rect fill="none" width="100" height="100"/>
<g>
	<circle fill="#AF1515" cx="50" cy="50" r="35.375"/>
	<path fill="#FFFFFF" d="M57.188,50l11.373-11.373c0.391-0.391,0.391-1.023,0-1.414l-5.774-5.775c-0.391-0.391-1.023-0.39-1.414,0
		L50,42.811L38.627,31.438c-0.391-0.39-1.023-0.391-1.414,0l-5.775,5.775c-0.39,0.391-0.39,1.023,0,1.414L42.811,50L31.438,61.373
		c-0.391,0.391-0.391,1.023,0,1.414l5.774,5.774c0.391,0.391,1.023,0.392,1.415,0L50,57.189l11.372,11.372
		c0.392,0.392,1.024,0.391,1.415,0l5.774-5.774c0.391-0.391,0.391-1.023,0-1.414L57.188,50z"/>
</g>
</svg>
